[img]http://img843.imageshack.us/img843/6343/posterwu.jpg[/img]
[code]
 The Mechanic R5 LiNE - IMAGiNE

********************************************************************************************************************



Ripper ...........:IMAGiNE                                         IMDB Rating.......:6.8/10                             

Video Codec.......:XVID                                            Release Date......:19/02/11

Audio Codec.......:MP3                                             Theatre Date......:28/01/11

Audio Bitrate.....:192                                             Runtime...........:1h 24mn

Subtitles.........:NIL                                             Language..........:ENGLISH

Resolution........:720  x 304                                      IMDb URL.......... http://www.imdb.com/title/tt0472399/

DETAILS:



Video

ID                               : 0

Format                           : MPEG-4 Visual

Format profile                   : Advanced Simple@L5

Format settings, BVOP            : Yes

Format settings, QPel            : No

Format settings, GMC             : No warppoints

Format settings, Matrix          : Default (H.263)

Codec ID                         : XVID

Codec ID/Hint                    : XviD

Duration                         : 1h 24mn

Bit rate                         : 2 174 Kbps

Width                            : 720 pixels

Height                           : 304 pixels

Display aspect ratio             : 2.35:1

Frame rate                       : 25.000 fps

Color space                      : YUV

Chroma subsampling               : 4:2:0

Bit depth                        : 8 bits

Scan type                        : Progressive

Compression mode                 : Lossy

Bits/(Pixel*Frame)               : 0.397

Stream size                      : 1.28 GiB (92%)

Writing library                  : XviD 61



Audio

ID                               : 1

Format                           : MPEG Audio

Format version                   : Version 1

Format profile                   : Layer 3

Codec ID                         : 55

Codec ID/Hint                    : MP3

Duration                         : 1h 24mn

Bit rate mode                    : Constant

Bit rate                         : 192 Kbps

Channel(s)                       : 2 channels

Sampling rate                    : 44.1 KHz

Compression mode                 : Lossy

Stream size                      : 116 MiB (8%)

Alignment                        : Split accross interleaves

Interleave, duration             : 40 ms (1.00 video frame)

Interleave, preload duration     : 500 ms













SOURCES:



VIDEO: Relizlab... Thanks 

AUDIO: Thanks Matey 



NOTES:



IMAGiNE bringing you another release.......... The Mechanic R5



Here we are with a nice looking R5 fro the weekend... Thanks to relizlab for the vobs  Thanks Matey

Okay this is a nice looking R5 IMO, as far as R5's go..  We did our normal things of making a script 

up to adjust the white balance, the gamma, the brightness, and the colors a little bit. Also we added a 

slight sharpening script to give it that little extra touch. The audio is from a friend thanks bro...

It was just a matter of syncing it to the video... FYI the audio does have a few areas we're the 

bass sounds distored a tad, but nothing to worry over for such an early release...

Enjoy 
[/code]
Screens:
[img]http://img692.imageshack.us/img692/8897/77469394.jpg[/img]
[img]http://img413.imageshack.us/img413/7563/96288435.jpg[/img]
[img]http://img5.imageshack.us/img5/5223/82154744.jpg[/img]
